<svg width="22" height="22" viewBox="0 0 22 22" fill="none" xmlns="http://www.w3.org/2000/svg">
<path d="M13.75 2.92188H8.25C7.74858 2.92188 7.26769 3.12107 6.91313 3.47563C6.55857 3.83019 6.35938 4.31108 6.35938 4.8125V17.1875C6.35938 17.6889 6.55857 18.1698 6.91313 18.5244C7.26769 18.8789 7.74858 19.0781 8.25 19.0781H13.75C14.2514 19.0781 14.7323 18.8789 15.0869 18.5244C15.4414 18.1698 15.6406 17.6889 15.6406 17.1875V4.8125C15.6406 4.31108 15.4414 3.83019 15.0869 3.47563C14.7323 3.12107 14.2514 2.92188 13.75 2.92188ZM14.6094 17.1875C14.6094 17.4154 14.5188 17.634 14.3577 17.7952C14.1965 17.9563 13.9779 18.0469 13.75 18.0469H8.25C8.02208 18.0469 7.80349 17.9563 7.64233 17.7952C7.48117 17.634 7.39062 17.4154 7.39062 17.1875V4.8125C7.39062 4.58458 7.48117 4.36599 7.64233 4.20483C7.80349 4.04367 8.02208 3.95312 8.25 3.95312H13.75C13.9779 3.95312 14.1965 4.04367 14.3577 4.20483C14.5188 4.36599 14.6094 4.58458 14.6094 4.8125V17.1875ZM18.3906 7.5625V14.4375C18.3906 14.5743 18.3363 14.7054 18.2396 14.8021C18.1429 14.8988 18.0118 14.9531 17.875 14.9531C17.7382 14.9531 17.6071 14.8988 17.5104 14.8021C17.4137 14.7054 17.3594 14.5743 17.3594 14.4375V7.5625C17.3594 7.42575 17.4137 7.2946 17.5104 7.1979C17.6071 7.1012 17.7382 7.04688 17.875 7.04688C18.0118 7.04688 18.1429 7.1012 18.2396 7.1979C18.3363 7.2946 18.3906 7.42575 18.3906 7.5625ZM21.1406 8.9375V13.0625C21.1406 13.1993 21.0863 13.3304 20.9896 13.4271C20.8929 13.5238 20.7618 13.5781 20.625 13.5781C20.4882 13.5781 20.3571 13.5238 20.2604 13.4271C20.1637 13.3304 20.1094 13.1993 20.1094 13.0625V8.9375C20.1094 8.80075 20.1637 8.6696 20.2604 8.5729C20.3571 8.4762 20.4882 8.42188 20.625 8.42188C20.7618 8.42188 20.8929 8.4762 20.9896 8.5729C21.0863 8.6696 21.1406 8.80075 21.1406 8.9375ZM4.64062 7.5625V14.4375C4.64062 14.5743 4.5863 14.7054 4.4896 14.8021C4.3929 14.8988 4.26175 14.9531 4.125 14.9531C3.98825 14.9531 3.8571 14.8988 3.7604 14.8021C3.6637 14.7054 3.60938 14.5743 3.60938 14.4375V7.5625C3.60938 7.42575 3.6637 7.2946 3.7604 7.1979C3.8571 7.1012 3.98825 7.04688 4.125 7.04688C4.26175 7.04688 4.3929 7.1012 4.4896 7.1979C4.5863 7.2946 4.64062 7.42575 4.64062 7.5625ZM1.89062 8.9375V13.0625C1.89062 13.1993 1.8363 13.3304 1.7396 13.4271C1.6429 13.5238 1.51175 13.5781 1.375 13.5781C1.23825 13.5781 1.1071 13.5238 1.0104 13.4271C0.9137 13.3304 0.859375 13.1993 0.859375 13.0625V8.9375C0.859375 8.80075 0.9137 8.6696 1.0104 8.5729C1.1071 8.4762 1.23825 8.42188 1.375 8.42188C1.51175 8.42188 1.6429 8.4762 1.7396 8.5729C1.8363 8.6696 1.89062 8.80075 1.89062 8.9375Z" fill="#0B0E2C"/>
</svg>
