<svg width="22" height="22" viewBox="0 0 22 22" fill="none" xmlns="http://www.w3.org/2000/svg">
<path d="M21.0865 18.3322L16.274 8.70719C16.2312 8.62138 16.1654 8.5492 16.0839 8.49875C16.0023 8.44829 15.9084 8.42157 15.8125 8.42157C15.7166 8.42157 15.6227 8.44829 15.5411 8.49875C15.4596 8.5492 15.3938 8.62138 15.351 8.70719L13.4346 12.54C11.8329 12.4736 10.2915 11.9111 9.02344 10.9304C10.4976 9.42275 11.3772 7.43312 11.5002 5.32812H13.75C13.8868 5.32812 14.0179 5.2738 14.1146 5.1771C14.2113 5.0804 14.2656 4.94925 14.2656 4.8125C14.2656 4.67575 14.2113 4.5446 14.1146 4.4479C14.0179 4.3512 13.8868 4.29688 13.75 4.29688H8.76563V2.75C8.76563 2.61325 8.7113 2.4821 8.6146 2.3854C8.5179 2.2887 8.38675 2.23438 8.25 2.23438C8.11325 2.23438 7.9821 2.2887 7.8854 2.3854C7.7887 2.4821 7.73438 2.61325 7.73438 2.75V4.29688H2.75C2.61325 4.29688 2.4821 4.3512 2.3854 4.4479C2.2887 4.5446 2.23438 4.67575 2.23438 4.8125C2.23438 4.94925 2.2887 5.0804 2.3854 5.1771C2.4821 5.2738 2.61325 5.32812 2.75 5.32812H10.4663C10.3439 7.18094 9.55695 8.92733 8.25 10.2463C7.44835 9.43844 6.8353 8.46325 6.45477 7.39062C6.43341 7.32526 6.3992 7.26484 6.35414 7.2129C6.30909 7.16095 6.2541 7.11855 6.19241 7.08817C6.13072 7.0578 6.06358 7.04007 5.99494 7.03603C5.9263 7.03199 5.85754 7.04172 5.79271 7.06465C5.72789 7.08757 5.6683 7.12324 5.61746 7.16953C5.56663 7.21583 5.52556 7.27183 5.49668 7.33423C5.46781 7.39663 5.45171 7.46418 5.44932 7.5329C5.44694 7.60162 5.45833 7.67012 5.48281 7.73438C5.90697 8.93233 6.58738 10.0233 7.47656 10.9312C6.12447 11.9803 4.46132 12.5488 2.75 12.5469C2.61325 12.5469 2.4821 12.6012 2.3854 12.6979C2.2887 12.7946 2.23438 12.9257 2.23438 13.0625C2.23438 13.1993 2.2887 13.3304 2.3854 13.4271C2.4821 13.5238 2.61325 13.5781 2.75 13.5781C4.75214 13.58 6.69403 12.8933 8.25 11.6334C9.59117 12.7147 11.221 13.3773 12.9362 13.5386L10.5394 18.3322C10.5091 18.3928 10.4911 18.4588 10.4864 18.5263C10.4816 18.5939 10.4902 18.6617 10.5117 18.726C10.555 18.8557 10.6482 18.9629 10.7705 19.024C10.8929 19.0851 11.0346 19.095 11.1643 19.0517C11.2941 19.0083 11.4013 18.9152 11.4623 18.7928L12.6938 16.3281H18.9312L20.1635 18.7928C20.2063 18.8786 20.2722 18.9507 20.3537 19.0011C20.4352 19.0515 20.5292 19.0782 20.625 19.0781C20.705 19.0783 20.784 19.0595 20.8553 19.0231C20.9775 18.9621 21.0705 18.855 21.1138 18.7255C21.1572 18.5959 21.1473 18.4545 21.0865 18.3322ZM13.2095 15.2969L15.8125 10.0908L18.4155 15.2969H13.2095Z" fill="#0B0E2C"/>
</svg>
