<svg width="22" height="22" viewBox="0 0 22 22" fill="none" xmlns="http://www.w3.org/2000/svg">
<path d="M17.2279 4.81852C16.4214 4.00348 15.462 3.35566 14.4046 2.91221C13.3473 2.46877 12.2128 2.23842 11.0662 2.23438H11C8.67521 2.23438 6.44564 3.15789 4.80177 4.80177C3.15789 6.44564 2.23438 8.67521 2.23438 11V15.8125C2.23438 16.3139 2.43357 16.7948 2.78813 17.1494C3.14269 17.5039 3.62358 17.7031 4.125 17.7031H5.5C6.00142 17.7031 6.48231 17.5039 6.83687 17.1494C7.19143 16.7948 7.39062 16.3139 7.39062 15.8125V12.375C7.39062 11.8736 7.19143 11.3927 6.83687 11.0381C6.48231 10.6836 6.00142 10.4844 5.5 10.4844H3.28281C3.41361 8.52671 4.28354 6.69192 5.7164 5.3516C7.14927 4.01129 9.03797 3.26562 11 3.26562H11.0584C13.0123 3.2743 14.8899 4.02448 16.3118 5.36453C17.7337 6.70457 18.5937 8.5345 18.718 10.4844H16.5C15.9986 10.4844 15.5177 10.6836 15.1631 11.0381C14.8086 11.3927 14.6094 11.8736 14.6094 12.375V15.8125C14.6094 16.3139 14.8086 16.7948 15.1631 17.1494C15.5177 17.5039 15.9986 17.7031 16.5 17.7031H18.7344V17.875C18.7344 18.4676 18.499 19.0359 18.0799 19.4549C17.6609 19.874 17.0926 20.1094 16.5 20.1094H11.6875C11.5507 20.1094 11.4196 20.1637 11.3229 20.2604C11.2262 20.3571 11.1719 20.4882 11.1719 20.625C11.1719 20.7618 11.2262 20.8929 11.3229 20.9896C11.4196 21.0863 11.5507 21.1406 11.6875 21.1406H16.5C17.3661 21.1406 18.1967 20.7966 18.8091 20.1841C19.4216 19.5717 19.7656 18.7411 19.7656 17.875V11C19.7699 9.85338 19.548 8.71717 19.1125 7.65645C18.6771 6.59573 18.0366 5.63134 17.2279 4.81852ZM5.5 11.5156C5.72792 11.5156 5.94651 11.6062 6.10767 11.7673C6.26883 11.9285 6.35938 12.1471 6.35938 12.375V15.8125C6.35938 16.0404 6.26883 16.259 6.10767 16.4202C5.94651 16.5813 5.72792 16.6719 5.5 16.6719H4.125C3.89708 16.6719 3.67849 16.5813 3.51733 16.4202C3.35617 16.259 3.26562 16.0404 3.26562 15.8125V11.5156H5.5ZM15.6406 15.8125V12.375C15.6406 12.1471 15.7312 11.9285 15.8923 11.7673C16.0535 11.6062 16.2721 11.5156 16.5 11.5156H18.7344V16.6719H16.5C16.2721 16.6719 16.0535 16.5813 15.8923 16.4202C15.7312 16.259 15.6406 16.0404 15.6406 15.8125Z" fill="#0B0E2C"/>
</svg>
