<svg width="22" height="22" viewBox="0 0 22 22" fill="none" xmlns="http://www.w3.org/2000/svg">
<path d="M13.2894 2.28679C13.2027 2.24433 13.1058 2.22705 13.0098 2.23693C12.9138 2.2468 12.8225 2.28343 12.7463 2.34265L6.69797 7.04686H2.75C2.43091 7.04686 2.12489 7.17362 1.89926 7.39925C1.67363 7.62488 1.54688 7.9309 1.54688 8.24999V13.75C1.54688 14.0691 1.67363 14.3751 1.89926 14.6007C2.12489 14.8264 2.43091 14.9531 2.75 14.9531H6.69797L12.7463 19.6573C12.8225 19.7165 12.9138 19.7531 13.0098 19.763C13.1058 19.7729 13.2026 19.7556 13.2893 19.7132C13.3759 19.6707 13.4489 19.6048 13.5 19.5229C13.5511 19.4411 13.5781 19.3465 13.5781 19.25V2.74999C13.5782 2.6535 13.5511 2.55893 13.5001 2.47705C13.449 2.39516 13.376 2.32924 13.2894 2.28679ZM2.57812 13.75V8.24999C2.57812 8.2044 2.59623 8.16069 2.62847 8.12846C2.6607 8.09622 2.70442 8.07811 2.75 8.07811H6.35938V13.9219H2.75C2.70442 13.9219 2.6607 13.9038 2.62847 13.8715C2.59623 13.8393 2.57812 13.7956 2.57812 13.75ZM12.5469 18.1955L7.39062 14.1857V7.81429L12.5469 3.80444V18.1955ZM16.8893 8.84124C17.4147 9.43763 17.7046 10.2052 17.7046 11C17.7046 11.7948 17.4147 12.5624 16.8893 13.1587C16.8445 13.2095 16.7901 13.251 16.7293 13.2808C16.6685 13.3105 16.6024 13.328 16.5348 13.3323C16.4672 13.3365 16.3994 13.3274 16.3354 13.3054C16.2713 13.2835 16.2122 13.2491 16.1614 13.2043C16.1106 13.1595 16.0692 13.1051 16.0394 13.0443C16.0096 12.9835 15.9921 12.9174 15.9879 12.8498C15.9837 12.7822 15.9928 12.7144 16.0147 12.6504C16.0367 12.5863 16.0711 12.5272 16.1159 12.4764C16.4752 12.0684 16.6735 11.5433 16.6735 10.9996C16.6735 10.4558 16.4752 9.93075 16.1159 9.52272C16.03 9.41954 15.9878 9.28695 15.9981 9.15312C16.0085 9.0193 16.0706 8.89478 16.1713 8.80605C16.272 8.71731 16.4034 8.67134 16.5375 8.67791C16.6715 8.68448 16.7977 8.74308 16.8893 8.84124ZM21.1406 11C21.1418 12.649 20.534 14.2404 19.4339 15.4687C19.3893 15.521 19.3347 15.5638 19.2733 15.5946C19.2118 15.6255 19.1449 15.6437 19.0763 15.6483C19.0078 15.6529 18.939 15.6438 18.874 15.6214C18.8091 15.599 18.7492 15.5639 18.698 15.5181C18.6468 15.4723 18.6053 15.4167 18.5759 15.3546C18.5464 15.2925 18.5297 15.2251 18.5267 15.1565C18.5237 15.0878 18.5344 15.0193 18.5583 14.9548C18.5821 14.8904 18.6186 14.8314 18.6656 14.7812C19.5957 13.7414 20.1099 12.3951 20.1099 11C20.1099 9.60484 19.5957 8.25863 18.6656 7.21874C18.6186 7.1686 18.5821 7.10958 18.5583 7.04514C18.5344 6.9807 18.5237 6.91215 18.5267 6.8435C18.5297 6.77486 18.5464 6.7075 18.5759 6.64541C18.6053 6.58331 18.6468 6.52772 18.698 6.4819C18.7492 6.43608 18.8091 6.40095 18.874 6.37859C18.939 6.35622 19.0078 6.34707 19.0763 6.35167C19.1449 6.35627 19.2118 6.37452 19.2733 6.40536C19.3347 6.43619 19.3893 6.47899 19.4339 6.53124C20.534 7.75962 21.1418 9.35099 21.1406 11Z" fill="#0B0E2C"/>
</svg>
