<svg width="18" height="18" viewBox="0 0 18 18" fill="none" xmlns="http://www.w3.org/2000/svg">
<rect width="18" height="18" rx="9" fill="url(#paint0_radial_340_187)"/>
<path d="M9.31 7.7V10.43C9.52 10.31 9.63 10.06 9.63 9.67H11.28C11.28 10.82 10.6 11.59 9.31 11.68V12.56H8.66V11.68C7.19 11.57 6.45 10.69 6.45 9.06C6.45 7.47 7.25 6.6 8.66 6.48V5.59H9.31V6.47C10.52 6.56 11.28 7.28 11.28 8.49H9.68C9.68 8.07 9.56 7.81 9.31 7.7ZM8.14 9.06C8.14 9.82 8.31 10.28 8.66 10.43V7.71C8.31 7.84 8.14 8.29 8.14 9.06Z" fill="#7A4A00"/>
<defs>
<radialGradient id="paint0_radial_340_187" cx="0" cy="0" r="1" gradientUnits="userSpaceOnUse" gradientTransform="translate(9 9) scale(11.25)">
<stop stop-color="#FFD86A"/>
<stop offset="0.55" stop-color="#FFB620"/>
<stop offset="1" stop-color="#C97A00"/>
</radialGradient>
</defs>
</svg>
