<svg width="14" height="17" viewBox="0 0 14 17" fill="none" xmlns="http://www.w3.org/2000/svg">
<path d="M10.4523 2.77207C9.48079 1.74824 8.38749 0.847259 7.19687 0.0892561C7.09967 0.0308539 6.9884 0 6.875 0C6.7616 0 6.65033 0.0308539 6.55312 0.0892561C5.3625 0.847259 4.26921 1.74824 3.29766 2.77207C1.13984 5.03769 0 7.53691 0 10.0002C0 11.8236 0.724328 13.5722 2.01364 14.8616C3.30295 16.1509 5.05164 16.8752 6.875 16.8752C8.69836 16.8752 10.447 16.1509 11.7364 14.8616C13.0257 13.5722 13.75 11.8236 13.75 10.0002C13.75 7.53691 12.6102 5.03769 10.4523 2.77207ZM4.375 13.1252C4.375 10.9635 6.13516 9.43144 6.875 8.88301C7.61562 9.42988 9.375 10.9635 9.375 13.1252C9.375 13.7882 9.11161 14.4241 8.64277 14.893C8.17393 15.3618 7.53804 15.6252 6.875 15.6252C6.21196 15.6252 5.57607 15.3618 5.10723 14.893C4.63839 14.4241 4.375 13.7882 4.375 13.1252Z" fill="#E0006E"/>
</svg>
