<svg width="32" height="32" viewBox="0 0 32 32" fill="none" xmlns="http://www.w3.org/2000/svg">
<path d="M27 8.5H23.7575C24.2215 7.82511 24.4794 7.02998 24.5 6.21125C24.5185 5.58754 24.4093 4.96663 24.1791 4.38667C23.9489 3.8067 23.6025 3.27993 23.1613 2.8387C22.7201 2.39748 22.1933 2.05112 21.6133 1.82091C21.0334 1.5907 20.4125 1.48149 19.7887 1.5C19.2127 1.51229 18.6453 1.64356 18.1224 1.88556C17.5995 2.12756 17.1322 2.47506 16.75 2.90625C16.4681 3.22784 16.217 3.5752 16 3.94375C15.783 3.5752 15.5319 3.22784 15.25 2.90625C14.8678 2.47506 14.4005 2.12756 13.8776 1.88556C13.3547 1.64356 12.7873 1.51229 12.2113 1.5C11.5875 1.48149 10.9666 1.5907 10.3867 1.82091C9.8067 2.05112 9.27993 2.39748 8.83871 2.8387C8.39748 3.27993 8.05113 3.8067 7.82091 4.38667C7.5907 4.96663 7.48149 5.58754 7.5 6.21125C7.52058 7.02998 7.77853 7.82511 8.2425 8.5H5C4.33696 8.5 3.70107 8.76339 3.23223 9.23223C2.76339 9.70107 2.5 10.337 2.5 11V15C2.49988 15.5763 2.69889 16.135 3.06335 16.5815C3.4278 17.0279 3.93532 17.3347 4.5 17.45V25C4.5 25.663 4.76339 26.2989 5.23223 26.7678C5.70107 27.2366 6.33696 27.5 7 27.5H25C25.663 27.5 26.2989 27.2366 26.7678 26.7678C27.2366 26.2989 27.5 25.663 27.5 25V17.45C28.0647 17.3347 28.5722 17.0279 28.9367 16.5815C29.3011 16.135 29.5001 15.5763 29.5 15V11C29.5 10.337 29.2366 9.70107 28.7678 9.23223C28.2989 8.76339 27.663 8.5 27 8.5ZM26.5 14.5H17.5V11.5H26.5V14.5ZM19 4.89625C19.1106 4.77344 19.2455 4.67484 19.3961 4.60665C19.5467 4.53846 19.7097 4.50215 19.875 4.5H19.9188C20.1303 4.4994 20.3398 4.54135 20.5348 4.62336C20.7298 4.70537 20.9063 4.82575 21.0538 4.97736C21.2013 5.12896 21.3168 5.30869 21.3935 5.50584C21.4701 5.703 21.5064 5.91356 21.5 6.125C21.4979 6.29029 21.4615 6.45334 21.3933 6.60392C21.3252 6.7545 21.2266 6.88935 21.1038 7C20.2413 7.765 18.8225 8.1575 17.65 8.345C17.8375 7.1775 18.23 5.75875 19 4.89625ZM10.9625 4.9625C11.2592 4.66897 11.6589 4.503 12.0763 4.5H12.125C12.2903 4.50215 12.4533 4.53846 12.6039 4.60665C12.7545 4.67484 12.8894 4.77344 13 4.89625C13.765 5.75875 14.1575 7.17625 14.3438 8.3475C13.1812 8.15875 11.75 7.76625 10.8962 7C10.7734 6.88935 10.6748 6.7545 10.6067 6.60392C10.5385 6.45334 10.5022 6.29029 10.5 6.125C10.4945 5.91002 10.5326 5.69616 10.6121 5.49635C10.6916 5.29653 10.8108 5.11492 10.9625 4.9625ZM5.5 11.5H14.5V14.5H5.5V11.5ZM7.5 17.5H14.5V24.5H7.5V17.5ZM17.5 24.5V17.5H24.5V24.5H17.5Z" fill="white"/>
</svg>
