<svg width="24" height="24" viewBox="0 0 24 24" fill="none" xmlns="http://www.w3.org/2000/svg">
<path d="M22.5506 12.2452C22.5506 11.4655 22.4806 10.7158 22.3507 9.99609H11.995V14.2543H17.9125C17.6526 15.6237 16.873 16.7833 15.7035 17.5629V20.3318H19.272C21.3511 18.4126 22.5506 15.5938 22.5506 12.2452Z" fill="#4285F4"/>
<path d="M11.995 22.99C14.9638 22.99 17.4527 22.0104 19.272 20.3311L15.7035 17.5623C14.7239 18.222 13.4744 18.6219 11.995 18.6219C9.13619 18.6219 6.7072 16.6927 5.83757 14.0938H2.17909V16.9326C3.98834 20.5211 7.69679 22.99 11.995 22.99Z" fill="#34A853"/>
<path d="M5.83756 14.0845C5.61766 13.4247 5.48771 12.725 5.48771 11.9953C5.48771 11.2656 5.61766 10.5659 5.83756 9.9062V7.06738H2.17909C1.4294 8.54677 0.99958 10.2161 0.99958 11.9953C0.99958 13.7746 1.4294 15.4439 2.17909 16.9233L5.0279 14.7042L5.83756 14.0845Z" fill="#FBBC05"/>
<path d="M11.995 5.37817C13.6143 5.37817 15.0537 5.93794 16.2032 7.01749L19.3519 3.8688C17.4427 2.08955 14.9638 1 11.995 1C7.69679 1 3.98834 3.46897 2.17909 7.06747L5.83757 9.90629C6.70721 7.30737 9.13619 5.37817 11.995 5.37817Z" fill="#EA4335"/>
</svg>
