<svg width="24" height="24" viewBox="0 0 24 24" fill="none" xmlns="http://www.w3.org/2000/svg">
<path d="M12.0001 1.71429C6.31978 1.71429 1.71436 6.31972 1.71436 12C1.71436 17.6803 6.31978 22.2857 12.0001 22.2857C17.6804 22.2857 22.2858 17.6803 22.2858 12C22.2858 6.31972 17.6804 1.71429 12.0001 1.71429ZM12.0001 15.4286C11.5269 15.4286 11.1429 15.0446 11.1429 14.5714V11.1429C11.1429 10.6697 11.5269 10.2857 12.0001 10.2857C12.4732 10.2857 12.8572 10.6697 12.8572 11.1429V14.5714C12.8572 15.0446 12.4732 15.4286 12.0001 15.4286ZM12.0001 8.57144C11.5269 8.57144 11.1429 8.18744 11.1429 7.71429C11.1429 7.24115 11.5269 6.85715 12.0001 6.85715C12.4732 6.85715 12.8572 7.24115 12.8572 7.71429C12.8572 8.18744 12.4732 8.57144 12.0001 8.57144Z" fill="white"/>
</svg>
