<svg width="17" height="13" viewBox="0 0 17 13" fill="none" xmlns="http://www.w3.org/2000/svg">
<path d="M16.3125 11.25H15.75V7.3125C15.75 7.01413 15.6315 6.72798 15.4205 6.51701C15.2095 6.30603 14.9234 6.1875 14.625 6.1875H11.8125V1.125C11.8125 0.826631 11.694 0.540483 11.483 0.329505C11.272 0.118526 10.9859 0 10.6875 0H6.1875C5.88913 0 5.60298 0.118526 5.39201 0.329505C5.18103 0.540483 5.0625 0.826631 5.0625 1.125V3.375H2.25C1.95163 3.375 1.66548 3.49353 1.4545 3.70451C1.24353 3.91548 1.125 4.20163 1.125 4.5V11.25H0.5625C0.413316 11.25 0.270242 11.3093 0.164752 11.4148C0.0592632 11.5202 0 11.6633 0 11.8125C0 11.9617 0.0592632 12.1048 0.164752 12.2102C0.270242 12.3157 0.413316 12.375 0.5625 12.375H16.3125C16.4617 12.375 16.6048 12.3157 16.7102 12.2102C16.8157 12.1048 16.875 11.9617 16.875 11.8125C16.875 11.6633 16.8157 11.5202 16.7102 11.4148C16.6048 11.3093 16.4617 11.25 16.3125 11.25ZM5.0625 11.25H2.25V4.5H5.0625V11.25ZM9.28125 6.75C9.28125 6.89918 9.22199 7.04226 9.1165 7.14775C9.01101 7.25324 8.86793 7.3125 8.71875 7.3125C8.56957 7.3125 8.42649 7.25324 8.321 7.14775C8.21551 7.04226 8.15625 6.89918 8.15625 6.75V4.71797L8.05289 4.75242C7.98281 4.77578 7.90881 4.78511 7.83512 4.77987C7.76143 4.77464 7.6895 4.75494 7.62342 4.7219C7.55735 4.68886 7.49843 4.64314 7.45003 4.58733C7.40162 4.53152 7.36469 4.46672 7.34133 4.39664C7.31797 4.32656 7.30864 4.25256 7.31388 4.17887C7.31911 4.10518 7.33881 4.03325 7.37185 3.96717C7.40489 3.9011 7.45061 3.84218 7.50642 3.79378C7.56223 3.74537 7.62703 3.70844 7.69711 3.68508L8.54086 3.40383C8.62542 3.37564 8.71547 3.36795 8.80358 3.38139C8.8917 3.39483 8.97535 3.42902 9.04766 3.48114C9.11997 3.53326 9.17886 3.60182 9.21947 3.68116C9.26008 3.76051 9.28126 3.84837 9.28125 3.9375V6.75ZM14.625 11.25H11.8125V7.3125H14.625V11.25Z" fill="#1A1AE8"/>
</svg>
