<svg width="18" height="18" viewBox="0 0 18 18" fill="none" xmlns="http://www.w3.org/2000/svg">
<path d="M12.3749 10.9688C11.6214 10.9676 10.8937 11.2428 10.3295 11.7422L7.46006 9.90002C7.63817 9.31323 7.63817 8.6868 7.46006 8.10001L10.3295 6.25783C10.888 6.74868 11.6052 7.02104 12.3487 7.0247C13.0923 7.02836 13.8121 6.76307 14.3754 6.27774C14.9388 5.79241 15.3076 5.11977 15.414 4.38386C15.5204 3.64795 15.3571 2.89838 14.9543 2.27339C14.5515 1.6484 13.9363 1.19011 13.2221 0.983051C12.508 0.775989 11.743 0.834108 11.0684 1.14669C10.3937 1.45928 9.85479 2.00525 9.55102 2.68393C9.24725 3.36261 9.1991 4.12823 9.41545 4.83962L6.54529 6.6797C6.09896 6.28525 5.54824 6.02804 4.95929 5.93895C4.37033 5.84987 3.76818 5.93269 3.22515 6.17749C2.68212 6.42228 2.2213 6.81864 1.89805 7.31895C1.57479 7.81926 1.40283 8.40225 1.40283 8.99791C1.40283 9.59356 1.57479 10.1766 1.89805 10.6769C2.2213 11.1772 2.68212 11.5735 3.22515 11.8183C3.76818 12.0631 4.37033 12.1459 4.95929 12.0569C5.54824 11.9678 6.09896 11.7106 6.54529 11.3161L9.41475 13.1625C9.22542 13.7852 9.23728 14.4517 9.44864 15.0672C9.66 15.6828 10.0601 16.216 10.592 16.591C11.1239 16.966 11.7605 17.1638 12.4113 17.156C13.0621 17.1483 13.6939 16.9356 14.2167 16.5481C14.7396 16.1606 15.127 15.6181 15.3237 14.9977C15.5204 14.3773 15.5165 13.7107 15.3125 13.0927C15.1085 12.4747 14.7148 11.9367 14.1874 11.5554C13.66 11.1741 13.0257 10.9688 12.3749 10.9688ZM12.3749 2.53126C12.653 2.53126 12.9249 2.61374 13.1562 2.76826C13.3874 2.92278 13.5677 3.14241 13.6741 3.39937C13.7805 3.65632 13.8084 3.93907 13.7541 4.21186C13.6999 4.48465 13.5659 4.73522 13.3693 4.93188C13.1726 5.12855 12.922 5.26248 12.6493 5.31674C12.3765 5.371 12.0937 5.34316 11.8368 5.23672C11.5798 5.13028 11.3602 4.95004 11.2056 4.71879C11.0511 4.48753 10.9687 4.21564 10.9687 3.93751C10.9687 3.56455 11.1168 3.20687 11.3805 2.94315C11.6443 2.67942 12.0019 2.53126 12.3749 2.53126ZM4.4999 10.4063C4.22177 10.4063 3.94989 10.3238 3.71863 10.1693C3.48738 10.0147 3.30713 9.79512 3.2007 9.53816C3.09426 9.28121 3.06641 8.99846 3.12067 8.72567C3.17493 8.45288 3.30887 8.20231 3.50554 8.00565C3.7022 7.80898 3.95277 7.67505 4.22556 7.62079C4.49834 7.56652 4.78109 7.59437 5.03805 7.70081C5.29501 7.80724 5.51464 7.98749 5.66916 8.21874C5.82368 8.45 5.90615 8.72188 5.90615 9.00002C5.90615 9.37298 5.758 9.73066 5.49427 9.99438C5.23055 10.2581 4.87286 10.4063 4.4999 10.4063ZM12.3749 15.4688C12.0968 15.4688 11.8249 15.3863 11.5936 15.2318C11.3624 15.0772 11.1821 14.8576 11.0757 14.6007C10.9693 14.3437 10.9414 14.061 10.9957 13.7882C11.0499 13.5154 11.1839 13.2648 11.3805 13.0681C11.5772 12.8715 11.8278 12.7375 12.1006 12.6833C12.3733 12.629 12.6561 12.6569 12.9131 12.7633C13.17 12.8697 13.3896 13.05 13.5442 13.2812C13.6987 13.5125 13.7812 13.7844 13.7812 14.0625C13.7812 14.4355 13.633 14.7932 13.3693 15.0569C13.1055 15.3206 12.7479 15.4688 12.3749 15.4688Z" fill="white"/>
</svg>
